<?xml version="1.0" encoding="UTF-8"?><svg id="Layer_2" xmlns="http://www.w3.org/2000/svg" width="80" viewBox="0 0 987.02 286.69"><g id="Layer_1-2"><g><g id="_Path_"><path d="M979.48,.3c-4.06-6.94-183.12,109.28-184.1,129.36-.53,10.9,77.46,12.09,81.39,17.35,5.58,7.46-97.07,130.84-96.77,139.16,.39,10.65,206.01-142.39,206.98-150.73,2.33-20.13-90.01-11.32-89.11-19.12,0,0,85.5-109.38,81.62-116.01Z"/></g><g><path d="M80.02,38.72c19.75,0,41.54,2.72,59.59,18.73,19.41,17.03,22.13,39.5,22.13,55.17,0,28.6-10.9,44.61-19.41,53.46-18.05,18.39-41.89,20.09-57.89,20.09H52.44v79.68H0V38.72H80.02Zm-27.58,104.54h18.73c7.15,0,19.75-.34,28.26-8.51,4.77-4.77,8.51-12.6,8.51-22.48s-3.41-17.37-8.51-22.13c-7.83-7.49-19.07-8.51-29.29-8.51h-17.71v61.64Z"/><path d="M229.51,38.72V221.59h70.49v44.27h-122.93V38.72h52.44Z"/><path d="M503.98,173.23c0,21.79-2.72,48.7-25.2,71.85-21.79,22.48-46.99,25.88-70.83,25.88s-49.04-3.41-70.83-25.88c-22.48-23.16-25.2-50.06-25.2-71.85V38.72h52.44V171.87c0,9.88,.68,26.56,11.92,38.14,9.19,9.88,21.79,11.92,31.67,11.92s22.48-2.04,31.67-11.92c11.24-11.58,11.92-28.26,11.92-38.14V38.72h52.44V173.23Z"/><path d="M645.29,141.9h112.72v2.38c0,27.58-9.88,69.47-35.08,95.69-25.2,26.22-54.14,30.99-81.05,30.99s-56.53-4.43-83.09-31.67c-13.28-13.62-33.37-41.2-33.37-86.49,0-37.12,13.62-66.74,32.69-86.15,27.92-28.95,62.32-33.03,89.22-33.03,18.73,0,42.57,3.06,63.68,17.03,15.32,10.22,28.6,26.22,36.78,40.52l-47.33,25.54c-4.43-8.85-11.24-18.05-20.09-24.52-10.22-7.49-21.79-10.9-34.73-10.9-20.77,0-36.1,6.81-46.99,18.39-12.6,13.28-19.41,32.69-19.41,53.8,0,25.88,9.54,42.57,19.07,52.1,13.28,13.62,28.6,17.71,45.97,17.71,22.47,0,34.39-7.83,39.5-12.26,1.7-1.36,11.92-10.22,16.35-26.9h-54.83v-42.23Z"/></g></g></g></svg>
